Coordinates
version=1
nRows=13
nColumns=40
inDegrees=yes

Units are S.I. units (second, meters, Newtons, ...)
Angles are in degrees.

endheader
time	pelvis_tilt	pelvis_list	pelvis_rotation	pelvis_tx	pelvis_ty	pelvis_tz	hip_flexion_r	hip_adduction_r	hip_rotation_r	knee_angle_r	knee_angle_r_beta	ankle_angle_r	subtalar_angle_r	mtp_angle_r	hip_flexion_l	hip_adduction_l	hip_rotation_l	knee_angle_l	knee_angle_l_beta	ankle_angle_l	subtalar_angle_l	mtp_angle_l	lumbar_extension	lumbar_bending	lumbar_rotation	arm_flex_r	arm_add_r	arm_rot_r	elbow_flex_r	pro_sup_r	wrist_flex_r	wrist_dev_r	arm_flex_l	arm_add_l	arm_rot_l	elbow_flex_l	pro_sup_l	wrist_flex_l	wrist_dev_l
     49.11500000	     -2.40642136	     -5.03641403	      0.63866270	      0.98734018	      0.91035642	      0.53657001	     14.13854005	      6.59637019	     -7.21517193	     31.70799743	     31.70799743	     19.74840584	    -10.99632843	      0.72430934	     28.78316879	    -14.46278364	      4.20324501	     69.63398826	     69.63398826	     10.22097259	    -19.54396729	     20.93842257	    -10.57150322	      5.05006640	      0.42174729	     23.46900873	    -12.96775904	     -6.94114153	     40.63465962	     45.96537461	      0.00000000	      0.00000000	     11.57057481	     -6.91313209	     -5.69828404	     28.81324467	     46.39855729	      0.00000000	      0.00000000
     49.13485714	     -2.30527997	     -4.95314165	      1.17794341	      0.98588058	      0.91016881	      0.53708274	     13.72439900	      6.57223950	     -7.37079623	     31.71940649	     31.71940649	     20.01986479	    -11.31972403	      0.70592504	     29.99693745	    -14.65630656	      3.85532975	     68.31375230	     68.31375230	     11.49579931	    -19.60312370	     21.05022382	    -10.61962944	      4.80597175	      1.14953903	     25.93503994	    -13.64764997	     -7.08289568	     41.98460517	     45.93691721	      0.00000000	      0.00000000	      9.19709356	     -6.13279891	     -5.51717354	     27.66987126	     46.32714114	      0.00000000	      0.00000000
     49.15471429	     -2.16450318	     -4.83184926	      1.83909973	      0.98438380	      0.91070791	      0.53721801	     13.10709255	      6.53274541	     -7.50781602	     31.40729422	     31.40729422	     20.11399961	    -11.86084048	      0.88115001	     30.93731429	    -14.56898310	      3.60558910	     66.18842783	     66.18842783	     13.12374113	    -19.62340070	     22.14278914	    -10.76046825	      4.61028414	      0.31307420	     28.80017032	    -12.95851287	     -6.95400312	     45.22367072	     45.82143700	      0.00000000	      0.00000000	      6.45734498	     -6.09218706	     -5.03326904	     25.57696207	     46.19814184	      0.00000000	      0.00000000
     49.17457143	     -2.28074043	     -4.64123297	      2.50572619	      0.98268616	      0.91145845	      0.53682786	     12.68231183	      6.30079423	     -7.88324218	     30.93948791	     30.93948791	     20.13764119	    -11.94932768	      0.87510998	     31.91774037	    -14.14809081	      3.42056910	     63.37958325	     63.37958325	     14.74301928	    -19.62587466	     23.78971682	    -10.68297116	      4.31740669	      1.14454505	     29.66055734	    -14.35492848	     -5.89854171	     51.19932636	     45.55005833	      0.00000000	      0.00000000	      4.49223518	     -5.77458875	     -3.08287350	     23.96120492	     45.78726181	      0.00000000	      0.00000000
     49.19442857	     -2.37609897	     -4.40177000	      3.15708703	      0.98097626	      0.91293318	      0.53611990	     12.05933366	      5.99912627	     -8.30314199	     30.14579269	     30.14579269	     20.02598710	    -11.84893752	      1.00062570	     32.43244573	    -13.56672602	      3.14316771	     59.69523362	     59.69523362	     15.34441966	    -19.59934564	     23.39245200	    -10.56912877	      3.99457289	      1.19086652	     32.31481414	    -14.50797937	     -6.04355173	     53.25908904	     45.49666247	      0.00000000	      0.00000000	      2.05845415	     -5.60587882	     -2.73072285	     22.93299074	     45.67271216	      0.00000000	      0.00000000
     49.21428571	     -2.59565707	     -4.14440483	      3.83211027	      0.97908145	      0.91461951	      0.53500163	     11.49964149	      5.61360114	     -8.87569587	     29.22105047	     29.22105047	     19.85154805	    -11.45623636	      1.01916915	     32.78729559	    -12.72476254	      3.06892712	     55.45018087	     55.45018087	     15.44082052	    -19.54009628	     22.62237745	    -10.37996268	      3.67191234	      1.12587446	     34.87457927	    -14.74492627	     -6.07978584	     55.92109758	     45.41762788	      0.00000000	      0.00000000	     -0.37707583	     -5.51344492	     -2.29862199	     22.24199187	     45.53345902	      0.00000000	      0.00000000
     49.23414286	     -2.85939579	     -3.86598612	      4.48907487	      0.97708934	      0.91646495	      0.53358029	     10.89548411	      5.15619806	     -9.60130466	     28.13980907	     28.13980907	     19.62971740	    -10.76734187	      0.88666739	     32.88724799	    -11.72001090	      3.14373526	     50.75657645	     50.75657645	     14.85011428	    -19.41781226	     21.13641883	    -10.26378463	      3.34303742	      1.13289710	     37.21755949	    -15.13932927	     -5.95360815	     59.12407472	     45.31415543	      0.00000000	      0.00000000	     -2.77462244	     -5.51308595	     -1.71070236	     22.06246953	     45.35238963	      0.00000000	      0.00000000
     49.25400000	     -3.21169747	     -3.62942889	      5.08766381	      0.97515459	      0.91821163	      0.53206051	     10.32848492	      4.75655134	    -10.29011151	     26.91171912	     26.91171912	     18.88402986	    -10.29537204	     -0.45216977	     32.69130861	    -10.75192909	      3.27761275	     45.54571230	     45.54571230	     12.81621690	    -19.24373031	     16.59527515	     -9.97608691	      3.04554510	      2.08459468	     38.61484528	    -16.52836895	     -5.81603527	     63.47153584	     45.24447366	      0.00000000	      0.00000000	     -5.47735275	     -6.89760221	      8.31237902	     24.30964354	     43.49463145	      0.00000000	      0.00000000
     49.27385714	     -3.51798406	     -3.39056915	      5.66025653	      0.97328059	      0.91985031	      0.53021519	      9.70982662	      4.33629677	    -11.01647038	     25.76380224	     25.76380224	     18.74936068	     -9.43753237	     -0.31469845	     32.33390040	     -9.69348424	      3.71520609	     40.45427568	     40.45427568	     11.19136110	    -18.87379641	     13.96232852	     -9.77953577	      2.73736068	      2.18353762	     40.98204103	    -17.15353455	     -5.48010135	     66.31767958	     45.17100901	      0.00000000	      0.00000000	     -7.90786686	     -7.21699130	      9.02866570	     25.13191175	     43.48373660	      0.00000000	      0.00000000
     49.29371429	     -3.83364272	     -3.16071276	      6.15050299	      0.97146220	      0.92129887	      0.52831058	      9.07074571	      3.98037098	    -11.57288587	     24.55673283	     24.55673283	     18.57764595	     -8.76473313	     -0.19061855	     31.93407314	     -8.69456415	      4.27407794	     35.70293539	     35.70293539	     10.54128597	    -17.85615102	     14.09041461	     -9.50650415	      2.41492807	      2.38956878	     43.52120912	    -17.51179007	     -5.55873436	     67.91114043	     45.13480460	      0.00000000	      0.00000000	     -9.65131223	     -7.33923570	      9.14988023	     24.83698780	     43.44984253	      0.00000000	      0.00000000
     49.31357143	     -4.04388011	     -3.09754331	      6.62444843	      0.96986284	      0.92232067	      0.52631034	      8.28327415	      3.76260709	    -12.44507557	     23.32009901	     23.32009901	     18.49669459	     -7.56263818	     -0.30237259	     31.44145494	     -8.04997767	      4.69836405	     31.35493094	     31.35493094	      9.73783962	    -16.12484904	     13.11344507	     -9.37961439	      2.28712362	      2.40146020	     46.11481631	    -17.80361012	     -5.33447433	     70.08784761	     45.07123744	      0.00000000	      0.00000000	    -11.50349433	     -7.48210202	      9.36854098	     25.14902564	     43.40051573	      0.00000000	      0.00000000
     49.33342857	     -4.28045752	     -3.15410164	      7.02153165	      0.96844989	      0.92267910	      0.52436351	      7.54551018	      3.68894918	    -13.32068129	     22.12656779	     22.12656779	     18.45878573	     -6.27738849	     -0.72681629	     31.05324865	     -7.77029560	      4.62241287	     27.52526876	     27.52526876	      8.49598281	    -13.67671643	     10.38667579	     -9.23125391	      2.28988847	      2.55437206	     48.39440616	    -18.37326021	     -4.59788126	     72.52214102	     44.99089975	      0.00000000	      0.00000000	    -13.59646487	     -7.88763330	     10.00455039	     26.71619736	     43.30444426	      0.00000000	      0.00000000
     49.35328571	     -4.53571724	     -3.15529082	      7.30984177	      0.96713688	      0.92269191	      0.52244514	      6.92824282	      3.66446790	    -13.63424898	     21.10262821	     21.10262821	     18.43592190	     -5.83775756	     -0.69351293	     30.73592845	     -7.44959938	      4.58176430	     24.38622155	     24.38622155	      8.18436367	    -11.27989923	     10.23966525	     -8.99203292	      2.12365717	      2.86704028	     50.78896662	    -18.73124009	     -4.60692907	     73.64946035	     44.97005417	      0.00000000	      0.00000000	    -14.84370464	     -8.03917251	     10.28567815	     26.78885075	     43.25750372	      0.00000000	      0.00000000
